<svg width="98" height="97" viewBox="0 0 98 97" fill="none" xmlns="http://www.w3.org/2000/svg">
<path fill-rule="evenodd" clip-rule="evenodd" d="M48.8438 88.9531C71.0646 88.9531 89.0781 70.9396 89.0781 48.7188C89.0781 26.4979 71.0646 8.48438 48.8438 8.48438C26.6229 8.48438 8.60938 26.4979 8.60938 48.7188C8.60938 70.9396 26.6229 88.9531 48.8438 88.9531ZM48.8438 97C75.5088 97 97.125 75.3838 97.125 48.7188C97.125 22.0538 75.5088 0.4375 48.8438 0.4375C22.1788 0.4375 0.5625 22.0538 0.5625 48.7188C0.5625 75.3838 22.1788 97 48.8438 97ZM48.8438 20.5547C51.0658 20.5547 52.8672 22.356 52.8672 24.5781V44.6953H72.9844C75.2065 44.6953 77.0078 46.4967 77.0078 48.7188C77.0078 50.9408 75.2065 52.7422 72.9844 52.7422H52.8672V72.8594C52.8672 75.0815 51.0658 76.8828 48.8438 76.8828C46.6217 76.8828 44.8203 75.0815 44.8203 72.8594V52.7422H24.7031C22.481 52.7422 20.6797 50.9408 20.6797 48.7187C20.6797 46.4967 22.481 44.6953 24.7031 44.6953H44.8203V24.5781C44.8203 22.356 46.6217 20.5547 48.8438 20.5547Z" fill="#627D98"/>
</svg>
