<svg width="82" height="98" viewBox="0 0 82 98" fill="none" xmlns="http://www.w3.org/2000/svg">
<path fill-rule="evenodd" clip-rule="evenodd" d="M30.9374 6.01145C33.0948 2.72936 36.8099 0.5625 41.0311 0.5625C45.2522 0.5625 48.9673 2.72931 51.1247 6.01133C66.212 10.3815 77.2422 24.301 77.2422 40.7969V55.5683C79.7584 58.6778 81.2656 62.6375 81.2656 66.9492C81.2656 76.9486 73.1595 85.0547 63.1602 85.0547H53.1016C53.1016 88.2559 51.8299 91.3261 49.5662 93.5897C47.3026 95.8533 44.2325 97.125 41.0312 97.125C37.83 97.125 34.7599 95.8533 32.4963 93.5897C30.2326 91.3261 28.9609 88.2559 28.9609 85.0547H18.9023C8.90297 85.0547 0.796875 76.9486 0.796875 66.9492C0.796875 62.6375 2.30405 58.6778 4.82031 55.5683V40.7969C4.82031 24.3012 15.8503 10.3817 30.9374 6.01145ZM12.8672 55.5683C12.8672 57.4109 12.2348 59.1977 11.0757 60.6301C9.67629 62.3595 8.84375 64.5462 8.84375 66.9492C8.84375 72.5044 13.3471 77.0078 18.9023 77.0078H63.1602C68.7154 77.0078 73.2188 72.5044 73.2188 66.9492C73.2188 64.5462 72.3862 62.3595 70.9868 60.6301C69.8277 59.1977 69.1953 57.4109 69.1953 55.5683V40.7969C69.1953 25.2423 56.5858 12.6328 41.0312 12.6328C25.4767 12.6328 12.8672 25.2423 12.8672 40.7969V55.5683ZM38.1862 87.8997C37.4317 87.1451 37.0078 86.1218 37.0078 85.0547H45.0547C45.0547 86.1218 44.6308 87.1451 43.8763 87.8997C43.1217 88.6542 42.0983 89.0781 41.0312 89.0781C39.9642 89.0781 38.9408 88.6542 38.1862 87.8997Z" fill="#627D98"/>
</svg>
