<svg width="54" height="70" viewBox="0 0 54 70" fill="none" xmlns="http://www.w3.org/2000/svg">
<path fill-rule="evenodd" clip-rule="evenodd" d="M18.8903 0.621094C11.4834 0.621094 5.47888 6.62562 5.47888 14.0326V27.443C2.22136 29.8898 0.114258 33.7854 0.114258 38.1732V43.5378C0.114258 50.9447 6.11875 56.9492 13.5257 56.9492H22.9137V64.9961C22.9137 67.2182 24.715 69.0196 26.9371 69.0196C29.1592 69.0196 30.9606 67.2182 30.9606 64.9961V56.9492H40.3486C47.7556 56.9492 53.7601 50.9447 53.7601 43.5378V38.1732C53.7601 35.5153 52.9786 33.0154 51.6302 30.9199C50.9773 29.9051 50.2558 28.9993 49.7508 28.3717C49.6383 28.2319 49.535 28.1039 49.4394 27.9855L49.4393 27.9854C49.0344 27.4837 48.7664 27.1518 48.5115 26.8015C48.468 26.7416 48.4295 26.6872 48.3955 26.6381V14.0326C48.3955 6.62561 42.391 0.621094 34.9841 0.621094H18.8903ZM48.1729 26.2817C48.1733 26.2818 48.1776 26.2899 48.1848 26.3054C48.1762 26.2894 48.1726 26.2816 48.1729 26.2817ZM18.8903 8.66797C15.9276 8.66797 13.5258 11.0698 13.5258 14.0326V32.8086C10.5629 32.8086 8.16113 35.2104 8.16113 38.1732V43.5378C8.16113 46.5005 10.5629 48.9023 13.5257 48.9023H40.3486C43.3114 48.9023 45.7132 46.5005 45.7132 43.5378V38.1732C45.7132 37.1052 45.4011 36.1102 44.8632 35.2742C44.3938 34.5447 43.8123 33.8252 43.2246 33.0979C41.8048 31.3412 40.3487 29.5394 40.3487 27.444V14.0326C40.3487 11.0698 37.9469 8.66797 34.9841 8.66797H18.8903Z" fill="#627D98"/>
</svg>
