<svg width="91" height="92" viewBox="0 0 91 92" fill="none" xmlns="http://www.w3.org/2000/svg">
<path fill-rule="evenodd" clip-rule="evenodd" d="M64.666 36.791C64.666 52.3456 52.0565 64.9551 36.502 64.9551C20.9474 64.9551 8.33789 52.3456 8.33789 36.791C8.33789 21.2364 20.9474 8.62695 36.502 8.62695C52.0565 8.62695 64.666 21.2364 64.666 36.791ZM59.1044 65.0834C52.9096 70.0388 45.0518 73.002 36.502 73.002C16.5032 73.002 0.291016 56.7898 0.291016 36.791C0.291016 16.7923 16.5032 0.580078 36.502 0.580078C56.5007 0.580078 72.7129 16.7923 72.7129 36.791C72.7129 45.3409 69.7497 53.1987 64.7944 59.3934L89.6399 84.239C91.2112 85.8102 91.2112 88.3577 89.6399 89.929C88.0687 91.5002 85.5212 91.5002 83.9499 89.929L59.1044 65.0834Z" fill="#627D98"/>
</svg>
