<svg width="82" height="81" viewBox="0 0 82 81" fill="none" xmlns="http://www.w3.org/2000/svg">
<path fill-rule="evenodd" clip-rule="evenodd" d="M73.2188 12.4922C73.2188 14.7143 71.4174 16.5156 69.1953 16.5156C66.9732 16.5156 65.1719 14.7143 65.1719 12.4922C65.1719 10.2701 66.9732 8.46875 69.1953 8.46875C71.4174 8.46875 73.2188 10.2701 73.2188 12.4922ZM81.2656 12.4922C81.2656 19.1584 75.8616 24.5625 69.1953 24.5625C63.9398 24.5625 59.4688 21.2037 57.8118 16.5156H4.82031C2.59823 16.5156 0.796875 14.7143 0.796875 12.4922C0.796875 10.2701 2.59823 8.46875 4.82031 8.46875H57.8118C59.4688 3.78066 63.9398 0.421875 69.1953 0.421875C75.8616 0.421875 81.2656 5.82594 81.2656 12.4922ZM8.84375 40.6562C8.84375 42.8783 10.6451 44.6797 12.8672 44.6797C15.0893 44.6797 16.8906 42.8783 16.8906 40.6562C16.8906 38.4342 15.0893 36.6328 12.8672 36.6328C10.6451 36.6328 8.84375 38.4342 8.84375 40.6562ZM0.796875 40.6562C0.796875 47.3225 6.20094 52.7266 12.8672 52.7266C18.1227 52.7266 22.5937 49.3678 24.2507 44.6797H77.2422C79.4643 44.6797 81.2656 42.8783 81.2656 40.6562C81.2656 38.4342 79.4643 36.6328 77.2422 36.6328H24.2507C22.5937 31.9447 18.1227 28.5859 12.8672 28.5859C6.20094 28.5859 0.796875 33.99 0.796875 40.6562ZM69.1953 72.8438C71.4174 72.8438 73.2188 71.0424 73.2188 68.8203C73.2188 66.5982 71.4174 64.7969 69.1953 64.7969C66.9732 64.7969 65.1719 66.5982 65.1719 68.8203C65.1719 71.0424 66.9732 72.8438 69.1953 72.8438ZM69.1953 80.8906C75.8616 80.8906 81.2656 75.4866 81.2656 68.8203C81.2656 62.1541 75.8616 56.75 69.1953 56.75C63.9398 56.75 59.4688 60.1088 57.8118 64.7969H4.82031C2.59823 64.7969 0.796875 66.5982 0.796875 68.8203C0.796875 71.0424 2.59823 72.8438 4.82031 72.8438H57.8118C59.4688 77.5318 63.9398 80.8906 69.1953 80.8906Z" fill="#627D98"/>
</svg>
