<svg width="98" height="98" viewBox="0 0 98 98" fill="none" xmlns="http://www.w3.org/2000/svg">
<path fill-rule="evenodd" clip-rule="evenodd" d="M67.8369 84.4878C62.2546 87.4194 55.8991 89.0781 49.1562 89.0781C42.4134 89.0781 36.0579 87.4194 30.4756 84.4878C29.5489 82.1755 29.0391 79.6512 29.0391 77.0078C29.0391 65.8974 38.0458 56.8906 49.1562 56.8906C60.2667 56.8906 69.2734 65.8974 69.2734 77.0078C69.2734 79.6512 68.7636 82.1755 67.8369 84.4878ZM77.3146 77.5825C77.3184 77.3914 77.3203 77.1998 77.3203 77.0078C77.3203 66.1745 71.2039 56.7698 62.2359 52.0587C66.5437 48.3691 69.2734 42.89 69.2734 36.7734C69.2734 25.663 60.2667 16.6562 49.1562 16.6562C38.0458 16.6562 29.0391 25.663 29.0391 36.7734C29.0391 42.89 31.7688 48.3691 36.0766 52.0587C27.1086 56.7698 20.9922 66.1745 20.9922 77.0078C20.9922 77.1998 20.9941 77.3914 20.9979 77.5825C13.5457 70.2799 8.92188 60.1018 8.92188 48.8438C8.92188 26.6229 26.9354 8.60938 49.1562 8.60938C71.3771 8.60938 89.3906 26.6229 89.3906 48.8438C89.3906 60.1018 84.7668 70.2799 77.3146 77.5825ZM49.1562 97.125C40.0588 97.125 31.5491 94.6088 24.2849 90.2345C10.2575 81.7875 0.875 66.4113 0.875 48.8438C0.875 22.1788 22.4913 0.5625 49.1562 0.5625C75.8213 0.5625 97.4375 22.1788 97.4375 48.8438C97.4375 66.4113 88.055 81.7875 74.0276 90.2345C73.417 90.6022 72.7977 90.9567 72.17 91.2977C65.3288 95.014 57.4891 97.125 49.1562 97.125ZM49.1562 48.8438C55.8225 48.8438 61.2266 43.4397 61.2266 36.7734C61.2266 30.1072 55.8225 24.7031 49.1562 24.7031C42.49 24.7031 37.0859 30.1072 37.0859 36.7734C37.0859 43.4397 42.49 48.8438 49.1562 48.8438Z" fill="#627D98"/>
</svg>
