<svg width="74" height="97" viewBox="0 0 74 97" fill="none" xmlns="http://www.w3.org/2000/svg">
<path fill-rule="evenodd" clip-rule="evenodd" d="M57.2734 20.5547V44.6953C57.2734 55.8057 48.2667 64.8125 37.1562 64.8125C26.0458 64.8125 17.0391 55.8057 17.0391 44.6953V20.5547C17.0391 9.44427 26.0458 0.4375 37.1562 0.4375C48.2667 0.4375 57.2734 9.44427 57.2734 20.5547ZM37.1562 8.48438C30.49 8.48438 25.0859 13.8884 25.0859 20.5547V44.6953C25.0859 51.3616 30.49 56.7656 37.1562 56.7656C43.8225 56.7656 49.2266 51.3616 49.2266 44.6953V20.5547C49.2266 13.8884 43.8225 8.48438 37.1562 8.48438ZM4.96875 44.6953C2.74667 44.6953 0.945312 46.4967 0.945312 48.7188V52.7422C0.945312 68.2968 13.5548 80.9062 29.1094 80.9062H33.1328V88.9531H25.0859C22.8639 88.9531 21.0625 90.7545 21.0625 92.9766C21.0625 95.1986 22.8639 97 25.0859 97H37.1562H49.2266C51.4486 97 53.25 95.1986 53.25 92.9766C53.25 90.7545 51.4486 88.9531 49.2266 88.9531H41.1797V80.9062H45.2031C60.7577 80.9062 73.3672 68.2968 73.3672 52.7422V48.7188C73.3672 46.4967 71.5658 44.6953 69.3438 44.6953C67.1217 44.6953 65.3203 46.4967 65.3203 48.7188V52.7422C65.3203 63.8526 56.3135 72.8594 45.2031 72.8594H37.1562H29.1094C17.999 72.8594 8.99219 63.8526 8.99219 52.7422V48.7188C8.99219 46.4967 7.19083 44.6953 4.96875 44.6953Z" fill="#627D98"/>
</svg>
